# xmcd CD database file generated by OrangeCD 5.2
#
# Track frame offsets:
#	150
#	17415
#	32191
#	56872
#	72483
#	89231
#	112372
#	125465
#	142426
#	154850
#	170676
#	188606
#
# Disc length: 2731 seconds
#
# Revision: 3
# Processed by: cddbd v1.5.1PL0 Copyright (c) Steve Scherf et al.
# Submitted via: OrangeCD 5.2
#
DISCID=bd0aa90c
DTITLE=Dave Sheriff - Dave Sheriff In Nashville
DYEAR=2000
DGENRE=Country
TTITLE0=Line Dance Boogie
TTITLE1=Cryin' Through My Eyes
TTITLE2=We've Got Memories
TTITLE3=In The Caribbean
TTITLE4=I Can't Wait For Payday
TTITLE5=Dave Sheriff, Porter Wagoner and The Jordanaires - I Couldn't Find This
TTITLE5=Words
TTITLE6=Dave Sheriff and Kimber Clayton - Outta Control
TTITLE7=Where Do We Go From Here
TTITLE8=Hearts and Flowers
TTITLE9=Saying Goodbye
TTITLE10=Dave Sheriff and The Jordanaires - I've Got The Love
TTITLE11=Dave Sheriff and The Jordanaires - Special Day
EXTD=
EXTT0=
EXTT1=
EXTT2=
EXTT3=
EXTT4=
EXTT5=
EXTT6=
EXTT7=
EXTT8=
EXTT9=
EXTT10=
EXTT11=
PLAYORDER=
